<mxfile host="app.diagrams.net" modified="2023-10-25T09:54:32.881Z" agent="Mozilla/5.0 (Windows NT 10.0; Win64; x64) AppleWebKit/537.36 (KHTML, like Gecko) Chrome/117.0.0.0 Safari/537.36 OPR/103.0.0.0" etag="ErNUeb824o4GdrOKpS4T" version="22.0.6" type="google">
  <diagram name="Page-1" id="Qns1BgG_zPjBIW_pc00a">
    <mxGraphModel grid="1" page="1" gridSize="10" guides="1" tooltips="1" connect="1" arrows="1" fold="1" pageScale="1" pageWidth="3800" pageHeight="1000" math="0" shadow="0">
      <root>
        <mxCell id="0" />
        <mxCell id="1" parent="0" />
        <mxCell id="weTA-WJjYGIkqLDmlpAC-170" value="" style="shape=hexagon;perimeter=hexagonPerimeter2;whiteSpace=wrap;html=1;fixedSize=1;fillColor=#6d8764;fontColor=#ffffff;strokeColor=#3A5431;" vertex="1" parent="1">
          <mxGeometry x="720" y="756.5" width="830" height="233.5" as="geometry" />
        </mxCell>
        <mxCell id="weTA-WJjYGIkqLDmlpAC-162" value="" style="rounded=0;whiteSpace=wrap;html=1;fillColor=#dae8fc;strokeColor=#6c8ebf;" vertex="1" parent="1">
          <mxGeometry x="10" y="20" width="730" height="480" as="geometry" />
        </mxCell>
        <mxCell id="weTA-WJjYGIkqLDmlpAC-163" value="" style="rounded=0;whiteSpace=wrap;html=1;fillColor=#ffe6cc;strokeColor=#d79b00;" vertex="1" parent="1">
          <mxGeometry x="770" y="10" width="730" height="480" as="geometry" />
        </mxCell>
        <mxCell id="weTA-WJjYGIkqLDmlpAC-164" value="" style="rounded=0;whiteSpace=wrap;html=1;fillColor=#fff2cc;strokeColor=#d6b656;" vertex="1" parent="1">
          <mxGeometry x="1530" y="10" width="730" height="480" as="geometry" />
        </mxCell>
        <mxCell id="weTA-WJjYGIkqLDmlpAC-165" value="" style="rounded=0;whiteSpace=wrap;html=1;fillColor=#e1d5e7;strokeColor=#9673a6;" vertex="1" parent="1">
          <mxGeometry x="2287.5" width="730" height="480" as="geometry" />
        </mxCell>
        <mxCell id="weTA-WJjYGIkqLDmlpAC-166" value="" style="rounded=0;whiteSpace=wrap;html=1;fillColor=#bac8d3;strokeColor=#23445d;" vertex="1" parent="1">
          <mxGeometry x="3040" y="10" width="730" height="480" as="geometry" />
        </mxCell>
        <mxCell id="weTA-WJjYGIkqLDmlpAC-130" value="" style="ellipse;whiteSpace=wrap;html=1;fillColor=#f8cecc;strokeColor=#b85450;" vertex="1" parent="1">
          <mxGeometry x="1683.54" y="635" width="432.93" height="340" as="geometry" />
        </mxCell>
        <mxCell id="weTA-WJjYGIkqLDmlpAC-15" value="" style="rounded=0;whiteSpace=wrap;html=1;" vertex="1" parent="1">
          <mxGeometry y="610" width="250" height="390" as="geometry" />
        </mxCell>
        <mxCell id="weTA-WJjYGIkqLDmlpAC-31" style="edgeStyle=orthogonalEdgeStyle;rounded=0;orthogonalLoop=1;jettySize=auto;html=1;exitX=0.5;exitY=0.9;exitDx=0;exitDy=0;exitPerimeter=0;entryX=0;entryY=0;entryDx=0;entryDy=0;" edge="1" parent="1" source="weTA-WJjYGIkqLDmlpAC-1" target="weTA-WJjYGIkqLDmlpAC-26">
          <mxGeometry relative="1" as="geometry" />
        </mxCell>
        <mxCell id="weTA-WJjYGIkqLDmlpAC-1" value="" style="shape=mxgraph.cisco.computers_and_peripherals.sun_workstation;html=1;pointerEvents=1;dashed=0;fillColor=#036897;strokeColor=#ffffff;strokeWidth=2;verticalLabelPosition=bottom;verticalAlign=top;align=center;outlineConnect=0;" vertex="1" parent="1">
          <mxGeometry x="90" y="60" width="85" height="67" as="geometry" />
        </mxCell>
        <mxCell id="weTA-WJjYGIkqLDmlpAC-32" style="edgeStyle=orthogonalEdgeStyle;rounded=0;orthogonalLoop=1;jettySize=auto;html=1;exitX=0.5;exitY=0.9;exitDx=0;exitDy=0;exitPerimeter=0;entryX=0.5;entryY=0;entryDx=0;entryDy=0;" edge="1" parent="1" source="weTA-WJjYGIkqLDmlpAC-2" target="weTA-WJjYGIkqLDmlpAC-26">
          <mxGeometry relative="1" as="geometry" />
        </mxCell>
        <mxCell id="weTA-WJjYGIkqLDmlpAC-2" value="" style="shape=mxgraph.cisco.computers_and_peripherals.sun_workstation;html=1;pointerEvents=1;dashed=0;fillColor=#036897;strokeColor=#ffffff;strokeWidth=2;verticalLabelPosition=bottom;verticalAlign=top;align=center;outlineConnect=0;" vertex="1" parent="1">
          <mxGeometry x="210" y="60" width="85" height="67" as="geometry" />
        </mxCell>
        <mxCell id="weTA-WJjYGIkqLDmlpAC-33" style="edgeStyle=orthogonalEdgeStyle;rounded=0;orthogonalLoop=1;jettySize=auto;html=1;exitX=0.5;exitY=0.9;exitDx=0;exitDy=0;exitPerimeter=0;entryX=1;entryY=0;entryDx=0;entryDy=0;" edge="1" parent="1" source="weTA-WJjYGIkqLDmlpAC-3" target="weTA-WJjYGIkqLDmlpAC-26">
          <mxGeometry relative="1" as="geometry" />
        </mxCell>
        <mxCell id="weTA-WJjYGIkqLDmlpAC-3" value="" style="shape=mxgraph.cisco.computers_and_peripherals.sun_workstation;html=1;pointerEvents=1;dashed=0;fillColor=#036897;strokeColor=#ffffff;strokeWidth=2;verticalLabelPosition=bottom;verticalAlign=top;align=center;outlineConnect=0;" vertex="1" parent="1">
          <mxGeometry x="330" y="60" width="85" height="67" as="geometry" />
        </mxCell>
        <mxCell id="weTA-WJjYGIkqLDmlpAC-35" style="edgeStyle=orthogonalEdgeStyle;rounded=0;orthogonalLoop=1;jettySize=auto;html=1;exitX=0.5;exitY=1;exitDx=0;exitDy=0;entryX=0;entryY=0.5;entryDx=0;entryDy=0;" edge="1" parent="1" source="weTA-WJjYGIkqLDmlpAC-4" target="weTA-WJjYGIkqLDmlpAC-26">
          <mxGeometry relative="1" as="geometry" />
        </mxCell>
        <mxCell id="weTA-WJjYGIkqLDmlpAC-4" value="" style="image;html=1;image=img/lib/clip_art/computers/Printer_128x128.png" vertex="1" parent="1">
          <mxGeometry x="10" y="200" width="80" height="80" as="geometry" />
        </mxCell>
        <mxCell id="weTA-WJjYGIkqLDmlpAC-5" value="" style="image;html=1;image=img/lib/clip_art/computers/Server_128x128.png" vertex="1" parent="1">
          <mxGeometry x="1945" y="808.5" width="80" height="80" as="geometry" />
        </mxCell>
        <mxCell id="weTA-WJjYGIkqLDmlpAC-7" value="" style="image;html=1;image=img/lib/clip_art/networking/Router_128x128.png" vertex="1" parent="1">
          <mxGeometry x="1775" y="818.5" width="80" height="80" as="geometry" />
        </mxCell>
        <mxCell id="weTA-WJjYGIkqLDmlpAC-134" style="edgeStyle=orthogonalEdgeStyle;rounded=0;orthogonalLoop=1;jettySize=auto;html=1;exitX=0.25;exitY=1;exitDx=0;exitDy=0;entryX=0.5;entryY=0;entryDx=0;entryDy=0;" edge="1" parent="1" source="weTA-WJjYGIkqLDmlpAC-8" target="weTA-WJjYGIkqLDmlpAC-7">
          <mxGeometry relative="1" as="geometry" />
        </mxCell>
        <mxCell id="weTA-WJjYGIkqLDmlpAC-135" style="edgeStyle=orthogonalEdgeStyle;rounded=0;orthogonalLoop=1;jettySize=auto;html=1;exitX=0.75;exitY=1;exitDx=0;exitDy=0;entryX=0.5;entryY=0;entryDx=0;entryDy=0;" edge="1" parent="1" source="weTA-WJjYGIkqLDmlpAC-8" target="weTA-WJjYGIkqLDmlpAC-5">
          <mxGeometry relative="1" as="geometry" />
        </mxCell>
        <mxCell id="weTA-WJjYGIkqLDmlpAC-8" value="" style="image;html=1;image=img/lib/clip_art/networking/Switch_128x128.png" vertex="1" parent="1">
          <mxGeometry x="1845" y="688.5" width="110" height="80" as="geometry" />
        </mxCell>
        <mxCell id="weTA-WJjYGIkqLDmlpAC-10" value="" style="shape=mxgraph.cisco.computers_and_peripherals.sun_workstation;html=1;pointerEvents=1;dashed=0;fillColor=#036897;strokeColor=#ffffff;strokeWidth=2;verticalLabelPosition=bottom;verticalAlign=top;align=center;outlineConnect=0;" vertex="1" parent="1">
          <mxGeometry x="8" y="760" width="85" height="67" as="geometry" />
        </mxCell>
        <mxCell id="weTA-WJjYGIkqLDmlpAC-11" value="" style="shape=mxgraph.signs.tech.cell_phone;html=1;pointerEvents=1;fillColor=#000000;strokeColor=none;verticalLabelPosition=bottom;verticalAlign=top;align=center;" vertex="1" parent="1">
          <mxGeometry x="11.46" y="831" width="40" height="69" as="geometry" />
        </mxCell>
        <mxCell id="weTA-WJjYGIkqLDmlpAC-34" style="edgeStyle=orthogonalEdgeStyle;rounded=0;orthogonalLoop=1;jettySize=auto;html=1;exitX=0.5;exitY=1;exitDx=0;exitDy=0;entryX=1;entryY=0.5;entryDx=0;entryDy=0;" edge="1" parent="1" source="weTA-WJjYGIkqLDmlpAC-12" target="weTA-WJjYGIkqLDmlpAC-26">
          <mxGeometry relative="1" as="geometry" />
        </mxCell>
        <mxCell id="weTA-WJjYGIkqLDmlpAC-12" value="" style="image;html=1;image=img/lib/clip_art/networking/Wireless_Router_128x128.png" vertex="1" parent="1">
          <mxGeometry x="540" y="170" width="110" height="110" as="geometry" />
        </mxCell>
        <mxCell id="weTA-WJjYGIkqLDmlpAC-14" value="" style="verticalLabelPosition=bottom;sketch=0;aspect=fixed;html=1;verticalAlign=top;strokeColor=none;align=center;outlineConnect=0;shape=mxgraph.citrix.tablet_2;" vertex="1" parent="1">
          <mxGeometry x="19.07" y="914" width="62.93" height="66" as="geometry" />
        </mxCell>
        <mxCell id="weTA-WJjYGIkqLDmlpAC-16" value="" style="shape=image;html=1;verticalAlign=top;verticalLabelPosition=bottom;labelBackgroundColor=#ffffff;imageAspect=0;aspect=fixed;image=https://cdn0.iconfinder.com/data/icons/luisance_pack/128/ordinateur_portable_eteint.png" vertex="1" parent="1">
          <mxGeometry x="8" y="670" width="98" height="98" as="geometry" />
        </mxCell>
        <mxCell id="weTA-WJjYGIkqLDmlpAC-17" value="&lt;font size=&quot;1&quot; style=&quot;&quot;&gt;&lt;b style=&quot;font-size: 26px;&quot;&gt;Ordinateur portable&lt;/b&gt;&lt;/font&gt;" style="text;strokeColor=none;align=center;fillColor=none;html=1;verticalAlign=middle;whiteSpace=wrap;rounded=0;" vertex="1" parent="1">
          <mxGeometry x="132" y="710" width="60" height="30" as="geometry" />
        </mxCell>
        <mxCell id="weTA-WJjYGIkqLDmlpAC-18" value="&lt;font size=&quot;1&quot; style=&quot;&quot;&gt;&lt;b style=&quot;font-size: 26px;&quot;&gt;Ordinateur&lt;/b&gt;&lt;/font&gt;" style="text;strokeColor=none;align=center;fillColor=none;html=1;verticalAlign=middle;whiteSpace=wrap;rounded=0;" vertex="1" parent="1">
          <mxGeometry x="122" y="778.5" width="60" height="30" as="geometry" />
        </mxCell>
        <mxCell id="weTA-WJjYGIkqLDmlpAC-19" value="&lt;font style=&quot;font-size: 26px;&quot;&gt;&lt;b&gt;Téléphone&lt;/b&gt;&lt;/font&gt;" style="text;strokeColor=none;align=center;fillColor=none;html=1;verticalAlign=middle;whiteSpace=wrap;rounded=0;" vertex="1" parent="1">
          <mxGeometry x="112" y="860" width="60" height="30" as="geometry" />
        </mxCell>
        <mxCell id="weTA-WJjYGIkqLDmlpAC-20" value="&lt;font style=&quot;font-size: 26px;&quot;&gt;&lt;b&gt;Tablette&lt;/b&gt;&lt;/font&gt;" style="text;strokeColor=none;align=center;fillColor=none;html=1;verticalAlign=middle;whiteSpace=wrap;rounded=0;" vertex="1" parent="1">
          <mxGeometry x="112" y="950" width="60" height="30" as="geometry" />
        </mxCell>
        <mxCell id="weTA-WJjYGIkqLDmlpAC-126" style="edgeStyle=orthogonalEdgeStyle;rounded=0;orthogonalLoop=1;jettySize=auto;html=1;exitX=1;exitY=1;exitDx=0;exitDy=0;entryX=0;entryY=0.75;entryDx=0;entryDy=0;" edge="1" parent="1" source="weTA-WJjYGIkqLDmlpAC-26" target="weTA-WJjYGIkqLDmlpAC-8">
          <mxGeometry relative="1" as="geometry" />
        </mxCell>
        <mxCell id="weTA-WJjYGIkqLDmlpAC-26" value="" style="image;html=1;image=img/lib/clip_art/networking/Switch_128x128.png" vertex="1" parent="1">
          <mxGeometry x="197.5" y="350" width="110" height="80" as="geometry" />
        </mxCell>
        <mxCell id="weTA-WJjYGIkqLDmlpAC-27" value="" style="verticalLabelPosition=bottom;sketch=0;aspect=fixed;html=1;verticalAlign=top;strokeColor=none;align=center;outlineConnect=0;shape=mxgraph.citrix.tablet_2;" vertex="1" parent="1">
          <mxGeometry x="500" y="50" width="62.93" height="66" as="geometry" />
        </mxCell>
        <mxCell id="weTA-WJjYGIkqLDmlpAC-28" value="" style="shape=image;html=1;verticalAlign=top;verticalLabelPosition=bottom;labelBackgroundColor=#ffffff;imageAspect=0;aspect=fixed;image=https://cdn0.iconfinder.com/data/icons/luisance_pack/128/ordinateur_portable_eteint.png" vertex="1" parent="1">
          <mxGeometry x="600" y="34" width="98" height="98" as="geometry" />
        </mxCell>
        <mxCell id="weTA-WJjYGIkqLDmlpAC-29" value="" style="html=1;verticalLabelPosition=bottom;align=center;labelBackgroundColor=#ffffff;verticalAlign=top;strokeWidth=2;strokeColor=#0080F0;shadow=0;dashed=0;shape=mxgraph.ios7.icons.wifi;pointerEvents=1" vertex="1" parent="1">
          <mxGeometry x="510" y="132" width="70" height="61" as="geometry" />
        </mxCell>
        <mxCell id="weTA-WJjYGIkqLDmlpAC-30" value="" style="html=1;verticalLabelPosition=bottom;align=center;labelBackgroundColor=#ffffff;verticalAlign=top;strokeWidth=2;strokeColor=#0080F0;shadow=0;dashed=0;shape=mxgraph.ios7.icons.wifi;pointerEvents=1" vertex="1" parent="1">
          <mxGeometry x="614" y="132" width="70" height="61" as="geometry" />
        </mxCell>
        <mxCell id="weTA-WJjYGIkqLDmlpAC-37" value="&lt;span style=&quot;font-size: 26px;&quot;&gt;&lt;b&gt;&lt;font color=&quot;#ff0000&quot;&gt;Switch Wi-Fi&lt;/font&gt;&lt;/b&gt;&lt;/span&gt;" style="text;strokeColor=none;align=center;fillColor=none;html=1;verticalAlign=middle;whiteSpace=wrap;rounded=0;" vertex="1" parent="1">
          <mxGeometry x="415" y="230" width="100" height="30" as="geometry" />
        </mxCell>
        <mxCell id="weTA-WJjYGIkqLDmlpAC-38" value="" style="image;html=1;image=img/lib/clip_art/computers/Printer_128x128.png" vertex="1" parent="1">
          <mxGeometry x="17" y="610" width="80" height="80" as="geometry" />
        </mxCell>
        <mxCell id="weTA-WJjYGIkqLDmlpAC-39" value="&lt;b style=&quot;border-color: var(--border-color); color: rgb(0, 0, 0); font-family: Helvetica; font-style: normal; font-variant-ligatures: normal; font-variant-caps: normal; letter-spacing: normal; orphans: 2; text-align: center; text-indent: 0px; text-transform: none; widows: 2; word-spacing: 0px; -webkit-text-stroke-width: 0px; background-color: rgb(251, 251, 251); text-decoration-thickness: initial; text-decoration-style: initial; text-decoration-color: initial; font-size: 26px;&quot;&gt;Imprimante&lt;/b&gt;" style="text;whiteSpace=wrap;html=1;" vertex="1" parent="1">
          <mxGeometry x="97" y="625" width="280" height="50" as="geometry" />
        </mxCell>
        <mxCell id="weTA-WJjYGIkqLDmlpAC-40" value="&lt;b style=&quot;border-color: var(--border-color); color: rgb(0, 0, 0); font-family: Helvetica; font-size: 26px; font-style: normal; font-variant-ligatures: normal; font-variant-caps: normal; letter-spacing: normal; orphans: 2; text-align: center; text-indent: 0px; text-transform: none; widows: 2; word-spacing: 0px; -webkit-text-stroke-width: 0px; background-color: rgb(251, 251, 251); text-decoration-thickness: initial; text-decoration-style: initial; text-decoration-color: initial;&quot;&gt;&lt;font color=&quot;#ff0000&quot; style=&quot;border-color: var(--border-color);&quot;&gt;Switch&lt;br&gt;&lt;/font&gt;&lt;/b&gt;" style="text;whiteSpace=wrap;html=1;" vertex="1" parent="1">
          <mxGeometry x="200" y="440" width="190" height="50" as="geometry" />
        </mxCell>
        <mxCell id="weTA-WJjYGIkqLDmlpAC-57" style="edgeStyle=orthogonalEdgeStyle;rounded=0;orthogonalLoop=1;jettySize=auto;html=1;exitX=0.5;exitY=0.9;exitDx=0;exitDy=0;exitPerimeter=0;entryX=0;entryY=0;entryDx=0;entryDy=0;" edge="1" parent="1" source="weTA-WJjYGIkqLDmlpAC-58" target="weTA-WJjYGIkqLDmlpAC-67">
          <mxGeometry relative="1" as="geometry" />
        </mxCell>
        <mxCell id="weTA-WJjYGIkqLDmlpAC-58" value="" style="shape=mxgraph.cisco.computers_and_peripherals.sun_workstation;html=1;pointerEvents=1;dashed=0;fillColor=#036897;strokeColor=#ffffff;strokeWidth=2;verticalLabelPosition=bottom;verticalAlign=top;align=center;outlineConnect=0;" vertex="1" parent="1">
          <mxGeometry x="840" y="60" width="85" height="67" as="geometry" />
        </mxCell>
        <mxCell id="weTA-WJjYGIkqLDmlpAC-59" style="edgeStyle=orthogonalEdgeStyle;rounded=0;orthogonalLoop=1;jettySize=auto;html=1;exitX=0.5;exitY=0.9;exitDx=0;exitDy=0;exitPerimeter=0;entryX=0.5;entryY=0;entryDx=0;entryDy=0;" edge="1" parent="1" source="weTA-WJjYGIkqLDmlpAC-60" target="weTA-WJjYGIkqLDmlpAC-67">
          <mxGeometry relative="1" as="geometry" />
        </mxCell>
        <mxCell id="weTA-WJjYGIkqLDmlpAC-60" value="" style="shape=mxgraph.cisco.computers_and_peripherals.sun_workstation;html=1;pointerEvents=1;dashed=0;fillColor=#036897;strokeColor=#ffffff;strokeWidth=2;verticalLabelPosition=bottom;verticalAlign=top;align=center;outlineConnect=0;" vertex="1" parent="1">
          <mxGeometry x="960" y="60" width="85" height="67" as="geometry" />
        </mxCell>
        <mxCell id="weTA-WJjYGIkqLDmlpAC-61" style="edgeStyle=orthogonalEdgeStyle;rounded=0;orthogonalLoop=1;jettySize=auto;html=1;exitX=0.5;exitY=0.9;exitDx=0;exitDy=0;exitPerimeter=0;entryX=1;entryY=0;entryDx=0;entryDy=0;" edge="1" parent="1" source="weTA-WJjYGIkqLDmlpAC-62" target="weTA-WJjYGIkqLDmlpAC-67">
          <mxGeometry relative="1" as="geometry" />
        </mxCell>
        <mxCell id="weTA-WJjYGIkqLDmlpAC-62" value="" style="shape=mxgraph.cisco.computers_and_peripherals.sun_workstation;html=1;pointerEvents=1;dashed=0;fillColor=#036897;strokeColor=#ffffff;strokeWidth=2;verticalLabelPosition=bottom;verticalAlign=top;align=center;outlineConnect=0;" vertex="1" parent="1">
          <mxGeometry x="1080" y="60" width="85" height="67" as="geometry" />
        </mxCell>
        <mxCell id="weTA-WJjYGIkqLDmlpAC-63" style="edgeStyle=orthogonalEdgeStyle;rounded=0;orthogonalLoop=1;jettySize=auto;html=1;exitX=0.5;exitY=1;exitDx=0;exitDy=0;entryX=0;entryY=0.5;entryDx=0;entryDy=0;" edge="1" parent="1" source="weTA-WJjYGIkqLDmlpAC-64" target="weTA-WJjYGIkqLDmlpAC-67">
          <mxGeometry relative="1" as="geometry" />
        </mxCell>
        <mxCell id="weTA-WJjYGIkqLDmlpAC-64" value="" style="image;html=1;image=img/lib/clip_art/computers/Printer_128x128.png" vertex="1" parent="1">
          <mxGeometry x="760" y="200" width="80" height="80" as="geometry" />
        </mxCell>
        <mxCell id="weTA-WJjYGIkqLDmlpAC-65" style="edgeStyle=orthogonalEdgeStyle;rounded=0;orthogonalLoop=1;jettySize=auto;html=1;exitX=0.5;exitY=1;exitDx=0;exitDy=0;entryX=1;entryY=0.5;entryDx=0;entryDy=0;" edge="1" parent="1" source="weTA-WJjYGIkqLDmlpAC-66" target="weTA-WJjYGIkqLDmlpAC-67">
          <mxGeometry relative="1" as="geometry" />
        </mxCell>
        <mxCell id="weTA-WJjYGIkqLDmlpAC-66" value="" style="image;html=1;image=img/lib/clip_art/networking/Wireless_Router_128x128.png" vertex="1" parent="1">
          <mxGeometry x="1290" y="170" width="110" height="110" as="geometry" />
        </mxCell>
        <mxCell id="weTA-WJjYGIkqLDmlpAC-125" style="edgeStyle=orthogonalEdgeStyle;rounded=0;orthogonalLoop=1;jettySize=auto;html=1;exitX=1;exitY=1;exitDx=0;exitDy=0;entryX=0;entryY=0.25;entryDx=0;entryDy=0;" edge="1" parent="1" source="weTA-WJjYGIkqLDmlpAC-67" target="weTA-WJjYGIkqLDmlpAC-8">
          <mxGeometry relative="1" as="geometry" />
        </mxCell>
        <mxCell id="weTA-WJjYGIkqLDmlpAC-67" value="" style="image;html=1;image=img/lib/clip_art/networking/Switch_128x128.png" vertex="1" parent="1">
          <mxGeometry x="947.5" y="350" width="110" height="80" as="geometry" />
        </mxCell>
        <mxCell id="weTA-WJjYGIkqLDmlpAC-68" value="" style="verticalLabelPosition=bottom;sketch=0;aspect=fixed;html=1;verticalAlign=top;strokeColor=none;align=center;outlineConnect=0;shape=mxgraph.citrix.tablet_2;" vertex="1" parent="1">
          <mxGeometry x="1250" y="50" width="62.93" height="66" as="geometry" />
        </mxCell>
        <mxCell id="weTA-WJjYGIkqLDmlpAC-69" value="" style="shape=image;html=1;verticalAlign=top;verticalLabelPosition=bottom;labelBackgroundColor=#ffffff;imageAspect=0;aspect=fixed;image=https://cdn0.iconfinder.com/data/icons/luisance_pack/128/ordinateur_portable_eteint.png" vertex="1" parent="1">
          <mxGeometry x="1350" y="34" width="98" height="98" as="geometry" />
        </mxCell>
        <mxCell id="weTA-WJjYGIkqLDmlpAC-70" value="" style="html=1;verticalLabelPosition=bottom;align=center;labelBackgroundColor=#ffffff;verticalAlign=top;strokeWidth=2;strokeColor=#0080F0;shadow=0;dashed=0;shape=mxgraph.ios7.icons.wifi;pointerEvents=1" vertex="1" parent="1">
          <mxGeometry x="1260" y="132" width="70" height="61" as="geometry" />
        </mxCell>
        <mxCell id="weTA-WJjYGIkqLDmlpAC-71" value="" style="html=1;verticalLabelPosition=bottom;align=center;labelBackgroundColor=#ffffff;verticalAlign=top;strokeWidth=2;strokeColor=#0080F0;shadow=0;dashed=0;shape=mxgraph.ios7.icons.wifi;pointerEvents=1" vertex="1" parent="1">
          <mxGeometry x="1364" y="132" width="70" height="61" as="geometry" />
        </mxCell>
        <mxCell id="weTA-WJjYGIkqLDmlpAC-72" value="&lt;span style=&quot;font-size: 26px;&quot;&gt;&lt;b&gt;&lt;font color=&quot;#ff0000&quot;&gt;Switch Wi-Fi&lt;/font&gt;&lt;/b&gt;&lt;/span&gt;" style="text;strokeColor=none;align=center;fillColor=none;html=1;verticalAlign=middle;whiteSpace=wrap;rounded=0;" vertex="1" parent="1">
          <mxGeometry x="1165" y="230" width="100" height="30" as="geometry" />
        </mxCell>
        <mxCell id="weTA-WJjYGIkqLDmlpAC-73" value="&lt;b style=&quot;border-color: var(--border-color); color: rgb(0, 0, 0); font-family: Helvetica; font-size: 26px; font-style: normal; font-variant-ligatures: normal; font-variant-caps: normal; letter-spacing: normal; orphans: 2; text-align: center; text-indent: 0px; text-transform: none; widows: 2; word-spacing: 0px; -webkit-text-stroke-width: 0px; background-color: rgb(251, 251, 251); text-decoration-thickness: initial; text-decoration-style: initial; text-decoration-color: initial;&quot;&gt;&lt;font color=&quot;#ff0000&quot; style=&quot;border-color: var(--border-color);&quot;&gt;Switch&lt;br&gt;&lt;/font&gt;&lt;/b&gt;" style="text;whiteSpace=wrap;html=1;" vertex="1" parent="1">
          <mxGeometry x="890" y="430" width="190" height="50" as="geometry" />
        </mxCell>
        <mxCell id="weTA-WJjYGIkqLDmlpAC-74" style="edgeStyle=orthogonalEdgeStyle;rounded=0;orthogonalLoop=1;jettySize=auto;html=1;exitX=0.5;exitY=0.9;exitDx=0;exitDy=0;exitPerimeter=0;entryX=0;entryY=0;entryDx=0;entryDy=0;" edge="1" parent="1" source="weTA-WJjYGIkqLDmlpAC-75" target="weTA-WJjYGIkqLDmlpAC-84">
          <mxGeometry relative="1" as="geometry" />
        </mxCell>
        <mxCell id="weTA-WJjYGIkqLDmlpAC-75" value="" style="shape=mxgraph.cisco.computers_and_peripherals.sun_workstation;html=1;pointerEvents=1;dashed=0;fillColor=#036897;strokeColor=#ffffff;strokeWidth=2;verticalLabelPosition=bottom;verticalAlign=top;align=center;outlineConnect=0;" vertex="1" parent="1">
          <mxGeometry x="1620" y="60" width="85" height="67" as="geometry" />
        </mxCell>
        <mxCell id="weTA-WJjYGIkqLDmlpAC-76" style="edgeStyle=orthogonalEdgeStyle;rounded=0;orthogonalLoop=1;jettySize=auto;html=1;exitX=0.5;exitY=0.9;exitDx=0;exitDy=0;exitPerimeter=0;entryX=0.5;entryY=0;entryDx=0;entryDy=0;" edge="1" parent="1" source="weTA-WJjYGIkqLDmlpAC-77" target="weTA-WJjYGIkqLDmlpAC-84">
          <mxGeometry relative="1" as="geometry" />
        </mxCell>
        <mxCell id="weTA-WJjYGIkqLDmlpAC-77" value="" style="shape=mxgraph.cisco.computers_and_peripherals.sun_workstation;html=1;pointerEvents=1;dashed=0;fillColor=#036897;strokeColor=#ffffff;strokeWidth=2;verticalLabelPosition=bottom;verticalAlign=top;align=center;outlineConnect=0;" vertex="1" parent="1">
          <mxGeometry x="1740" y="60" width="85" height="67" as="geometry" />
        </mxCell>
        <mxCell id="weTA-WJjYGIkqLDmlpAC-78" style="edgeStyle=orthogonalEdgeStyle;rounded=0;orthogonalLoop=1;jettySize=auto;html=1;exitX=0.5;exitY=0.9;exitDx=0;exitDy=0;exitPerimeter=0;entryX=1;entryY=0;entryDx=0;entryDy=0;" edge="1" parent="1" source="weTA-WJjYGIkqLDmlpAC-79" target="weTA-WJjYGIkqLDmlpAC-84">
          <mxGeometry relative="1" as="geometry" />
        </mxCell>
        <mxCell id="weTA-WJjYGIkqLDmlpAC-79" value="" style="shape=mxgraph.cisco.computers_and_peripherals.sun_workstation;html=1;pointerEvents=1;dashed=0;fillColor=#036897;strokeColor=#ffffff;strokeWidth=2;verticalLabelPosition=bottom;verticalAlign=top;align=center;outlineConnect=0;" vertex="1" parent="1">
          <mxGeometry x="1860" y="60" width="85" height="67" as="geometry" />
        </mxCell>
        <mxCell id="weTA-WJjYGIkqLDmlpAC-80" style="edgeStyle=orthogonalEdgeStyle;rounded=0;orthogonalLoop=1;jettySize=auto;html=1;exitX=0.5;exitY=1;exitDx=0;exitDy=0;entryX=0;entryY=0.5;entryDx=0;entryDy=0;" edge="1" parent="1" source="weTA-WJjYGIkqLDmlpAC-81" target="weTA-WJjYGIkqLDmlpAC-84">
          <mxGeometry relative="1" as="geometry" />
        </mxCell>
        <mxCell id="weTA-WJjYGIkqLDmlpAC-81" value="" style="image;html=1;image=img/lib/clip_art/computers/Printer_128x128.png" vertex="1" parent="1">
          <mxGeometry x="1540" y="200" width="80" height="80" as="geometry" />
        </mxCell>
        <mxCell id="weTA-WJjYGIkqLDmlpAC-82" style="edgeStyle=orthogonalEdgeStyle;rounded=0;orthogonalLoop=1;jettySize=auto;html=1;exitX=0.5;exitY=1;exitDx=0;exitDy=0;entryX=1;entryY=0.5;entryDx=0;entryDy=0;" edge="1" parent="1" source="weTA-WJjYGIkqLDmlpAC-83" target="weTA-WJjYGIkqLDmlpAC-84">
          <mxGeometry relative="1" as="geometry" />
        </mxCell>
        <mxCell id="weTA-WJjYGIkqLDmlpAC-83" value="" style="image;html=1;image=img/lib/clip_art/networking/Wireless_Router_128x128.png" vertex="1" parent="1">
          <mxGeometry x="2070" y="170" width="110" height="110" as="geometry" />
        </mxCell>
        <mxCell id="weTA-WJjYGIkqLDmlpAC-127" style="edgeStyle=orthogonalEdgeStyle;rounded=0;orthogonalLoop=1;jettySize=auto;html=1;exitX=1;exitY=1;exitDx=0;exitDy=0;entryX=0.5;entryY=0;entryDx=0;entryDy=0;" edge="1" parent="1" source="weTA-WJjYGIkqLDmlpAC-84" target="weTA-WJjYGIkqLDmlpAC-8">
          <mxGeometry relative="1" as="geometry" />
        </mxCell>
        <mxCell id="weTA-WJjYGIkqLDmlpAC-84" value="" style="image;html=1;image=img/lib/clip_art/networking/Switch_128x128.png" vertex="1" parent="1">
          <mxGeometry x="1727.5" y="350" width="110" height="80" as="geometry" />
        </mxCell>
        <mxCell id="weTA-WJjYGIkqLDmlpAC-85" value="" style="verticalLabelPosition=bottom;sketch=0;aspect=fixed;html=1;verticalAlign=top;strokeColor=none;align=center;outlineConnect=0;shape=mxgraph.citrix.tablet_2;" vertex="1" parent="1">
          <mxGeometry x="2030" y="50" width="62.93" height="66" as="geometry" />
        </mxCell>
        <mxCell id="weTA-WJjYGIkqLDmlpAC-86" value="" style="shape=image;html=1;verticalAlign=top;verticalLabelPosition=bottom;labelBackgroundColor=#ffffff;imageAspect=0;aspect=fixed;image=https://cdn0.iconfinder.com/data/icons/luisance_pack/128/ordinateur_portable_eteint.png" vertex="1" parent="1">
          <mxGeometry x="2130" y="34" width="98" height="98" as="geometry" />
        </mxCell>
        <mxCell id="weTA-WJjYGIkqLDmlpAC-87" value="" style="html=1;verticalLabelPosition=bottom;align=center;labelBackgroundColor=#ffffff;verticalAlign=top;strokeWidth=2;strokeColor=#0080F0;shadow=0;dashed=0;shape=mxgraph.ios7.icons.wifi;pointerEvents=1" vertex="1" parent="1">
          <mxGeometry x="2040" y="132" width="70" height="61" as="geometry" />
        </mxCell>
        <mxCell id="weTA-WJjYGIkqLDmlpAC-88" value="" style="html=1;verticalLabelPosition=bottom;align=center;labelBackgroundColor=#ffffff;verticalAlign=top;strokeWidth=2;strokeColor=#0080F0;shadow=0;dashed=0;shape=mxgraph.ios7.icons.wifi;pointerEvents=1" vertex="1" parent="1">
          <mxGeometry x="2144" y="132" width="70" height="61" as="geometry" />
        </mxCell>
        <mxCell id="weTA-WJjYGIkqLDmlpAC-89" value="&lt;span style=&quot;font-size: 26px;&quot;&gt;&lt;b&gt;&lt;font color=&quot;#ff0000&quot;&gt;Switch Wi-Fi&lt;/font&gt;&lt;/b&gt;&lt;/span&gt;" style="text;strokeColor=none;align=center;fillColor=none;html=1;verticalAlign=middle;whiteSpace=wrap;rounded=0;" vertex="1" parent="1">
          <mxGeometry x="1945" y="230" width="100" height="30" as="geometry" />
        </mxCell>
        <mxCell id="weTA-WJjYGIkqLDmlpAC-90" value="&lt;b style=&quot;border-color: var(--border-color); color: rgb(0, 0, 0); font-family: Helvetica; font-size: 26px; font-style: normal; font-variant-ligatures: normal; font-variant-caps: normal; letter-spacing: normal; orphans: 2; text-align: center; text-indent: 0px; text-transform: none; widows: 2; word-spacing: 0px; -webkit-text-stroke-width: 0px; background-color: rgb(251, 251, 251); text-decoration-thickness: initial; text-decoration-style: initial; text-decoration-color: initial;&quot;&gt;&lt;font color=&quot;#ff0000&quot; style=&quot;border-color: var(--border-color);&quot;&gt;Switch&lt;br&gt;&lt;/font&gt;&lt;/b&gt;" style="text;whiteSpace=wrap;html=1;" vertex="1" parent="1">
          <mxGeometry x="1730" y="440" width="190" height="50" as="geometry" />
        </mxCell>
        <mxCell id="weTA-WJjYGIkqLDmlpAC-91" style="edgeStyle=orthogonalEdgeStyle;rounded=0;orthogonalLoop=1;jettySize=auto;html=1;exitX=0.5;exitY=0.9;exitDx=0;exitDy=0;exitPerimeter=0;entryX=0;entryY=0;entryDx=0;entryDy=0;" edge="1" parent="1" source="weTA-WJjYGIkqLDmlpAC-92" target="weTA-WJjYGIkqLDmlpAC-101">
          <mxGeometry relative="1" as="geometry" />
        </mxCell>
        <mxCell id="weTA-WJjYGIkqLDmlpAC-92" value="" style="shape=mxgraph.cisco.computers_and_peripherals.sun_workstation;html=1;pointerEvents=1;dashed=0;fillColor=#036897;strokeColor=#ffffff;strokeWidth=2;verticalLabelPosition=bottom;verticalAlign=top;align=center;outlineConnect=0;" vertex="1" parent="1">
          <mxGeometry x="2370" y="60" width="85" height="67" as="geometry" />
        </mxCell>
        <mxCell id="weTA-WJjYGIkqLDmlpAC-93" style="edgeStyle=orthogonalEdgeStyle;rounded=0;orthogonalLoop=1;jettySize=auto;html=1;exitX=0.5;exitY=0.9;exitDx=0;exitDy=0;exitPerimeter=0;entryX=0.5;entryY=0;entryDx=0;entryDy=0;" edge="1" parent="1" source="weTA-WJjYGIkqLDmlpAC-94" target="weTA-WJjYGIkqLDmlpAC-101">
          <mxGeometry relative="1" as="geometry" />
        </mxCell>
        <mxCell id="weTA-WJjYGIkqLDmlpAC-94" value="" style="shape=mxgraph.cisco.computers_and_peripherals.sun_workstation;html=1;pointerEvents=1;dashed=0;fillColor=#036897;strokeColor=#ffffff;strokeWidth=2;verticalLabelPosition=bottom;verticalAlign=top;align=center;outlineConnect=0;" vertex="1" parent="1">
          <mxGeometry x="2490" y="60" width="85" height="67" as="geometry" />
        </mxCell>
        <mxCell id="weTA-WJjYGIkqLDmlpAC-95" style="edgeStyle=orthogonalEdgeStyle;rounded=0;orthogonalLoop=1;jettySize=auto;html=1;exitX=0.5;exitY=0.9;exitDx=0;exitDy=0;exitPerimeter=0;entryX=1;entryY=0;entryDx=0;entryDy=0;" edge="1" parent="1" source="weTA-WJjYGIkqLDmlpAC-96" target="weTA-WJjYGIkqLDmlpAC-101">
          <mxGeometry relative="1" as="geometry" />
        </mxCell>
        <mxCell id="weTA-WJjYGIkqLDmlpAC-96" value="" style="shape=mxgraph.cisco.computers_and_peripherals.sun_workstation;html=1;pointerEvents=1;dashed=0;fillColor=#036897;strokeColor=#ffffff;strokeWidth=2;verticalLabelPosition=bottom;verticalAlign=top;align=center;outlineConnect=0;" vertex="1" parent="1">
          <mxGeometry x="2610" y="60" width="85" height="67" as="geometry" />
        </mxCell>
        <mxCell id="weTA-WJjYGIkqLDmlpAC-97" style="edgeStyle=orthogonalEdgeStyle;rounded=0;orthogonalLoop=1;jettySize=auto;html=1;exitX=0.5;exitY=1;exitDx=0;exitDy=0;entryX=0;entryY=0.5;entryDx=0;entryDy=0;" edge="1" parent="1" source="weTA-WJjYGIkqLDmlpAC-98" target="weTA-WJjYGIkqLDmlpAC-101">
          <mxGeometry relative="1" as="geometry" />
        </mxCell>
        <mxCell id="weTA-WJjYGIkqLDmlpAC-98" value="" style="image;html=1;image=img/lib/clip_art/computers/Printer_128x128.png" vertex="1" parent="1">
          <mxGeometry x="2290" y="200" width="80" height="80" as="geometry" />
        </mxCell>
        <mxCell id="weTA-WJjYGIkqLDmlpAC-99" style="edgeStyle=orthogonalEdgeStyle;rounded=0;orthogonalLoop=1;jettySize=auto;html=1;exitX=0.5;exitY=1;exitDx=0;exitDy=0;entryX=1;entryY=0.5;entryDx=0;entryDy=0;" edge="1" parent="1" source="weTA-WJjYGIkqLDmlpAC-100" target="weTA-WJjYGIkqLDmlpAC-101">
          <mxGeometry relative="1" as="geometry" />
        </mxCell>
        <mxCell id="weTA-WJjYGIkqLDmlpAC-100" value="" style="image;html=1;image=img/lib/clip_art/networking/Wireless_Router_128x128.png" vertex="1" parent="1">
          <mxGeometry x="2820" y="170" width="110" height="110" as="geometry" />
        </mxCell>
        <mxCell id="weTA-WJjYGIkqLDmlpAC-128" style="edgeStyle=orthogonalEdgeStyle;rounded=0;orthogonalLoop=1;jettySize=auto;html=1;exitX=0;exitY=1;exitDx=0;exitDy=0;entryX=1;entryY=0.25;entryDx=0;entryDy=0;" edge="1" parent="1" source="weTA-WJjYGIkqLDmlpAC-101" target="weTA-WJjYGIkqLDmlpAC-8">
          <mxGeometry relative="1" as="geometry" />
        </mxCell>
        <mxCell id="weTA-WJjYGIkqLDmlpAC-101" value="" style="image;html=1;image=img/lib/clip_art/networking/Switch_128x128.png" vertex="1" parent="1">
          <mxGeometry x="2477.5" y="350" width="110" height="80" as="geometry" />
        </mxCell>
        <mxCell id="weTA-WJjYGIkqLDmlpAC-102" value="" style="verticalLabelPosition=bottom;sketch=0;aspect=fixed;html=1;verticalAlign=top;strokeColor=none;align=center;outlineConnect=0;shape=mxgraph.citrix.tablet_2;" vertex="1" parent="1">
          <mxGeometry x="2780" y="50" width="62.93" height="66" as="geometry" />
        </mxCell>
        <mxCell id="weTA-WJjYGIkqLDmlpAC-103" value="" style="shape=image;html=1;verticalAlign=top;verticalLabelPosition=bottom;labelBackgroundColor=#ffffff;imageAspect=0;aspect=fixed;image=https://cdn0.iconfinder.com/data/icons/luisance_pack/128/ordinateur_portable_eteint.png" vertex="1" parent="1">
          <mxGeometry x="2880" y="34" width="98" height="98" as="geometry" />
        </mxCell>
        <mxCell id="weTA-WJjYGIkqLDmlpAC-104" value="" style="html=1;verticalLabelPosition=bottom;align=center;labelBackgroundColor=#ffffff;verticalAlign=top;strokeWidth=2;strokeColor=#0080F0;shadow=0;dashed=0;shape=mxgraph.ios7.icons.wifi;pointerEvents=1" vertex="1" parent="1">
          <mxGeometry x="2790" y="132" width="70" height="61" as="geometry" />
        </mxCell>
        <mxCell id="weTA-WJjYGIkqLDmlpAC-105" value="" style="html=1;verticalLabelPosition=bottom;align=center;labelBackgroundColor=#ffffff;verticalAlign=top;strokeWidth=2;strokeColor=#0080F0;shadow=0;dashed=0;shape=mxgraph.ios7.icons.wifi;pointerEvents=1" vertex="1" parent="1">
          <mxGeometry x="2894" y="132" width="70" height="61" as="geometry" />
        </mxCell>
        <mxCell id="weTA-WJjYGIkqLDmlpAC-106" value="&lt;span style=&quot;font-size: 26px;&quot;&gt;&lt;b&gt;&lt;font color=&quot;#ff0000&quot;&gt;Switch Wi-Fi&lt;/font&gt;&lt;/b&gt;&lt;/span&gt;" style="text;strokeColor=none;align=center;fillColor=none;html=1;verticalAlign=middle;whiteSpace=wrap;rounded=0;" vertex="1" parent="1">
          <mxGeometry x="2695" y="230" width="100" height="30" as="geometry" />
        </mxCell>
        <mxCell id="weTA-WJjYGIkqLDmlpAC-107" value="&lt;b style=&quot;border-color: var(--border-color); color: rgb(0, 0, 0); font-family: Helvetica; font-size: 26px; font-style: normal; font-variant-ligatures: normal; font-variant-caps: normal; letter-spacing: normal; orphans: 2; text-align: center; text-indent: 0px; text-transform: none; widows: 2; word-spacing: 0px; -webkit-text-stroke-width: 0px; background-color: rgb(251, 251, 251); text-decoration-thickness: initial; text-decoration-style: initial; text-decoration-color: initial;&quot;&gt;&lt;font color=&quot;#ff0000&quot; style=&quot;border-color: var(--border-color);&quot;&gt;Switch&lt;br&gt;&lt;/font&gt;&lt;/b&gt;" style="text;whiteSpace=wrap;html=1;" vertex="1" parent="1">
          <mxGeometry x="2480" y="440" width="190" height="50" as="geometry" />
        </mxCell>
        <mxCell id="weTA-WJjYGIkqLDmlpAC-108" style="edgeStyle=orthogonalEdgeStyle;rounded=0;orthogonalLoop=1;jettySize=auto;html=1;exitX=0.5;exitY=0.9;exitDx=0;exitDy=0;exitPerimeter=0;entryX=0;entryY=0;entryDx=0;entryDy=0;" edge="1" parent="1" source="weTA-WJjYGIkqLDmlpAC-109" target="weTA-WJjYGIkqLDmlpAC-118">
          <mxGeometry relative="1" as="geometry" />
        </mxCell>
        <mxCell id="weTA-WJjYGIkqLDmlpAC-109" value="" style="shape=mxgraph.cisco.computers_and_peripherals.sun_workstation;html=1;pointerEvents=1;dashed=0;fillColor=#036897;strokeColor=#ffffff;strokeWidth=2;verticalLabelPosition=bottom;verticalAlign=top;align=center;outlineConnect=0;" vertex="1" parent="1">
          <mxGeometry x="3120" y="60" width="85" height="67" as="geometry" />
        </mxCell>
        <mxCell id="weTA-WJjYGIkqLDmlpAC-110" style="edgeStyle=orthogonalEdgeStyle;rounded=0;orthogonalLoop=1;jettySize=auto;html=1;exitX=0.5;exitY=0.9;exitDx=0;exitDy=0;exitPerimeter=0;entryX=0.5;entryY=0;entryDx=0;entryDy=0;" edge="1" parent="1" source="weTA-WJjYGIkqLDmlpAC-111" target="weTA-WJjYGIkqLDmlpAC-118">
          <mxGeometry relative="1" as="geometry" />
        </mxCell>
        <mxCell id="weTA-WJjYGIkqLDmlpAC-111" value="" style="shape=mxgraph.cisco.computers_and_peripherals.sun_workstation;html=1;pointerEvents=1;dashed=0;fillColor=#036897;strokeColor=#ffffff;strokeWidth=2;verticalLabelPosition=bottom;verticalAlign=top;align=center;outlineConnect=0;" vertex="1" parent="1">
          <mxGeometry x="3240" y="60" width="85" height="67" as="geometry" />
        </mxCell>
        <mxCell id="weTA-WJjYGIkqLDmlpAC-112" style="edgeStyle=orthogonalEdgeStyle;rounded=0;orthogonalLoop=1;jettySize=auto;html=1;exitX=0.5;exitY=0.9;exitDx=0;exitDy=0;exitPerimeter=0;entryX=1;entryY=0;entryDx=0;entryDy=0;" edge="1" parent="1" source="weTA-WJjYGIkqLDmlpAC-113" target="weTA-WJjYGIkqLDmlpAC-118">
          <mxGeometry relative="1" as="geometry" />
        </mxCell>
        <mxCell id="weTA-WJjYGIkqLDmlpAC-113" value="" style="shape=mxgraph.cisco.computers_and_peripherals.sun_workstation;html=1;pointerEvents=1;dashed=0;fillColor=#036897;strokeColor=#ffffff;strokeWidth=2;verticalLabelPosition=bottom;verticalAlign=top;align=center;outlineConnect=0;" vertex="1" parent="1">
          <mxGeometry x="3360" y="60" width="85" height="67" as="geometry" />
        </mxCell>
        <mxCell id="weTA-WJjYGIkqLDmlpAC-114" style="edgeStyle=orthogonalEdgeStyle;rounded=0;orthogonalLoop=1;jettySize=auto;html=1;exitX=0.5;exitY=1;exitDx=0;exitDy=0;entryX=0;entryY=0.5;entryDx=0;entryDy=0;" edge="1" parent="1" source="weTA-WJjYGIkqLDmlpAC-115" target="weTA-WJjYGIkqLDmlpAC-118">
          <mxGeometry relative="1" as="geometry" />
        </mxCell>
        <mxCell id="weTA-WJjYGIkqLDmlpAC-115" value="" style="image;html=1;image=img/lib/clip_art/computers/Printer_128x128.png" vertex="1" parent="1">
          <mxGeometry x="3040" y="200" width="80" height="80" as="geometry" />
        </mxCell>
        <mxCell id="weTA-WJjYGIkqLDmlpAC-116" style="edgeStyle=orthogonalEdgeStyle;rounded=0;orthogonalLoop=1;jettySize=auto;html=1;exitX=0.5;exitY=1;exitDx=0;exitDy=0;entryX=1;entryY=0.5;entryDx=0;entryDy=0;" edge="1" parent="1" source="weTA-WJjYGIkqLDmlpAC-117" target="weTA-WJjYGIkqLDmlpAC-118">
          <mxGeometry relative="1" as="geometry" />
        </mxCell>
        <mxCell id="weTA-WJjYGIkqLDmlpAC-117" value="" style="image;html=1;image=img/lib/clip_art/networking/Wireless_Router_128x128.png" vertex="1" parent="1">
          <mxGeometry x="3570" y="170" width="110" height="110" as="geometry" />
        </mxCell>
        <mxCell id="weTA-WJjYGIkqLDmlpAC-129" style="edgeStyle=orthogonalEdgeStyle;rounded=0;orthogonalLoop=1;jettySize=auto;html=1;exitX=0;exitY=1;exitDx=0;exitDy=0;entryX=1;entryY=0.75;entryDx=0;entryDy=0;" edge="1" parent="1" source="weTA-WJjYGIkqLDmlpAC-118" target="weTA-WJjYGIkqLDmlpAC-8">
          <mxGeometry relative="1" as="geometry" />
        </mxCell>
        <mxCell id="weTA-WJjYGIkqLDmlpAC-118" value="" style="image;html=1;image=img/lib/clip_art/networking/Switch_128x128.png" vertex="1" parent="1">
          <mxGeometry x="3227.5" y="350" width="110" height="80" as="geometry" />
        </mxCell>
        <mxCell id="weTA-WJjYGIkqLDmlpAC-119" value="" style="verticalLabelPosition=bottom;sketch=0;aspect=fixed;html=1;verticalAlign=top;strokeColor=none;align=center;outlineConnect=0;shape=mxgraph.citrix.tablet_2;" vertex="1" parent="1">
          <mxGeometry x="3530" y="50" width="62.93" height="66" as="geometry" />
        </mxCell>
        <mxCell id="weTA-WJjYGIkqLDmlpAC-120" value="" style="shape=image;html=1;verticalAlign=top;verticalLabelPosition=bottom;labelBackgroundColor=#ffffff;imageAspect=0;aspect=fixed;image=https://cdn0.iconfinder.com/data/icons/luisance_pack/128/ordinateur_portable_eteint.png" vertex="1" parent="1">
          <mxGeometry x="3630" y="34" width="98" height="98" as="geometry" />
        </mxCell>
        <mxCell id="weTA-WJjYGIkqLDmlpAC-121" value="" style="html=1;verticalLabelPosition=bottom;align=center;labelBackgroundColor=#ffffff;verticalAlign=top;strokeWidth=2;strokeColor=#0080F0;shadow=0;dashed=0;shape=mxgraph.ios7.icons.wifi;pointerEvents=1" vertex="1" parent="1">
          <mxGeometry x="3540" y="132" width="70" height="61" as="geometry" />
        </mxCell>
        <mxCell id="weTA-WJjYGIkqLDmlpAC-122" value="" style="html=1;verticalLabelPosition=bottom;align=center;labelBackgroundColor=#ffffff;verticalAlign=top;strokeWidth=2;strokeColor=#0080F0;shadow=0;dashed=0;shape=mxgraph.ios7.icons.wifi;pointerEvents=1" vertex="1" parent="1">
          <mxGeometry x="3644" y="132" width="70" height="61" as="geometry" />
        </mxCell>
        <mxCell id="weTA-WJjYGIkqLDmlpAC-123" value="&lt;span style=&quot;font-size: 26px;&quot;&gt;&lt;b&gt;&lt;font color=&quot;#ff0000&quot;&gt;Switch Wi-Fi&lt;/font&gt;&lt;/b&gt;&lt;/span&gt;" style="text;strokeColor=none;align=center;fillColor=none;html=1;verticalAlign=middle;whiteSpace=wrap;rounded=0;" vertex="1" parent="1">
          <mxGeometry x="3445" y="230" width="100" height="30" as="geometry" />
        </mxCell>
        <mxCell id="weTA-WJjYGIkqLDmlpAC-124" value="&lt;b style=&quot;border-color: var(--border-color); color: rgb(0, 0, 0); font-family: Helvetica; font-size: 26px; font-style: normal; font-variant-ligatures: normal; font-variant-caps: normal; letter-spacing: normal; orphans: 2; text-align: center; text-indent: 0px; text-transform: none; widows: 2; word-spacing: 0px; -webkit-text-stroke-width: 0px; background-color: rgb(251, 251, 251); text-decoration-thickness: initial; text-decoration-style: initial; text-decoration-color: initial;&quot;&gt;&lt;font color=&quot;#ff0000&quot; style=&quot;border-color: var(--border-color);&quot;&gt;Switch&lt;br&gt;&lt;/font&gt;&lt;/b&gt;" style="text;whiteSpace=wrap;html=1;" vertex="1" parent="1">
          <mxGeometry x="3230" y="440" width="190" height="50" as="geometry" />
        </mxCell>
        <mxCell id="weTA-WJjYGIkqLDmlpAC-131" value="" style="ellipse;whiteSpace=wrap;html=1;fillColor=#f8cecc;strokeColor=#b85450;" vertex="1" parent="1">
          <mxGeometry x="3392.93" y="710" width="200" height="130" as="geometry" />
        </mxCell>
        <mxCell id="weTA-WJjYGIkqLDmlpAC-132" value="&lt;font style=&quot;font-size: 26px;&quot;&gt;&lt;b&gt;Salle de serveur&lt;br&gt;&lt;/b&gt;&lt;/font&gt;" style="text;strokeColor=none;align=center;fillColor=none;html=1;verticalAlign=middle;whiteSpace=wrap;rounded=0;" vertex="1" parent="1">
          <mxGeometry x="3640" y="760" width="60" height="30" as="geometry" />
        </mxCell>
        <mxCell id="weTA-WJjYGIkqLDmlpAC-136" value="&lt;div style=&quot;text-align: center;&quot;&gt;&lt;span style=&quot;background-color: initial; font-size: 26px;&quot;&gt;&lt;b style=&quot;&quot;&gt;&lt;font color=&quot;#0000ff&quot;&gt;Routeur&lt;/font&gt;&lt;/b&gt;&lt;/span&gt;&lt;/div&gt;" style="text;whiteSpace=wrap;html=1;" vertex="1" parent="1">
          <mxGeometry x="1790" y="900" width="120" height="50" as="geometry" />
        </mxCell>
        <mxCell id="weTA-WJjYGIkqLDmlpAC-137" value="&lt;div style=&quot;text-align: center;&quot;&gt;&lt;span style=&quot;background-color: initial; font-size: 26px;&quot;&gt;&lt;font color=&quot;#0000ff&quot;&gt;&lt;b&gt;Serveur&lt;/b&gt;&lt;/font&gt;&lt;/span&gt;&lt;/div&gt;" style="text;whiteSpace=wrap;html=1;" vertex="1" parent="1">
          <mxGeometry x="1945" y="890" width="130" height="50" as="geometry" />
        </mxCell>
        <mxCell id="weTA-WJjYGIkqLDmlpAC-139" value="&lt;b style=&quot;border-color: var(--border-color); color: rgb(0, 0, 0); font-family: Helvetica; font-size: 26px; font-style: normal; font-variant-ligatures: normal; font-variant-caps: normal; letter-spacing: normal; orphans: 2; text-align: center; text-indent: 0px; text-transform: none; widows: 2; word-spacing: 0px; -webkit-text-stroke-width: 0px; background-color: rgb(251, 251, 251); text-decoration-thickness: initial; text-decoration-style: initial; text-decoration-color: initial;&quot;&gt;&lt;font color=&quot;#0000ff&quot; style=&quot;border-color: var(--border-color);&quot;&gt;Switch&lt;/font&gt;&lt;/b&gt;" style="text;whiteSpace=wrap;html=1;" vertex="1" parent="1">
          <mxGeometry x="1930" y="638.5" width="130" height="50" as="geometry" />
        </mxCell>
        <mxCell id="weTA-WJjYGIkqLDmlpAC-140" value="" style="shape=mxgraph.signs.tech.cell_phone;html=1;pointerEvents=1;fillColor=#000000;strokeColor=none;verticalLabelPosition=bottom;verticalAlign=top;align=center;" vertex="1" parent="1">
          <mxGeometry x="885" y="880" width="40" height="69" as="geometry" />
        </mxCell>
        <mxCell id="weTA-WJjYGIkqLDmlpAC-154" style="edgeStyle=orthogonalEdgeStyle;rounded=0;orthogonalLoop=1;jettySize=auto;html=1;exitX=1;exitY=0.25;exitDx=0;exitDy=0;entryX=0;entryY=0.5;entryDx=0;entryDy=0;" edge="1" parent="1" source="weTA-WJjYGIkqLDmlpAC-142" target="weTA-WJjYGIkqLDmlpAC-8">
          <mxGeometry relative="1" as="geometry" />
        </mxCell>
        <mxCell id="weTA-WJjYGIkqLDmlpAC-142" value="" style="image;html=1;image=img/lib/clip_art/networking/Switch_128x128.png" vertex="1" parent="1">
          <mxGeometry x="1380" y="808.5" width="110" height="80" as="geometry" />
        </mxCell>
        <mxCell id="weTA-WJjYGIkqLDmlpAC-148" value="" style="shape=mxgraph.signs.tech.cell_phone;html=1;pointerEvents=1;fillColor=#000000;strokeColor=none;verticalLabelPosition=bottom;verticalAlign=top;align=center;" vertex="1" parent="1">
          <mxGeometry x="890" y="762" width="40" height="69" as="geometry" />
        </mxCell>
        <mxCell id="weTA-WJjYGIkqLDmlpAC-149" value="" style="html=1;verticalLabelPosition=bottom;align=center;labelBackgroundColor=#ffffff;verticalAlign=top;strokeWidth=2;strokeColor=#0080F0;shadow=0;dashed=0;shape=mxgraph.ios7.icons.wifi;pointerEvents=1;rotation=-90;" vertex="1" parent="1">
          <mxGeometry x="975" y="890" width="70" height="61" as="geometry" />
        </mxCell>
        <mxCell id="weTA-WJjYGIkqLDmlpAC-151" value="" style="html=1;verticalLabelPosition=bottom;align=center;labelBackgroundColor=#ffffff;verticalAlign=top;strokeWidth=2;strokeColor=#0080F0;shadow=0;dashed=0;shape=mxgraph.ios7.icons.wifi;pointerEvents=1;rotation=-90;" vertex="1" parent="1">
          <mxGeometry x="975" y="779" width="70" height="61" as="geometry" />
        </mxCell>
        <mxCell id="weTA-WJjYGIkqLDmlpAC-153" style="edgeStyle=orthogonalEdgeStyle;rounded=0;orthogonalLoop=1;jettySize=auto;html=1;exitX=1;exitY=0.5;exitDx=0;exitDy=0;entryX=0;entryY=0.5;entryDx=0;entryDy=0;" edge="1" parent="1" source="weTA-WJjYGIkqLDmlpAC-152" target="weTA-WJjYGIkqLDmlpAC-142">
          <mxGeometry relative="1" as="geometry" />
        </mxCell>
        <mxCell id="weTA-WJjYGIkqLDmlpAC-152" value="" style="image;html=1;image=img/lib/clip_art/networking/Wireless_Router_128x128.png" vertex="1" parent="1">
          <mxGeometry x="1080" y="788.5" width="110" height="110" as="geometry" />
        </mxCell>
        <mxCell id="weTA-WJjYGIkqLDmlpAC-156" value="&lt;b style=&quot;border-color: var(--border-color); color: rgb(0, 0, 0); font-family: Helvetica; font-style: normal; font-variant-ligatures: normal; font-variant-caps: normal; letter-spacing: normal; orphans: 2; text-indent: 0px; text-transform: none; widows: 2; word-spacing: 0px; -webkit-text-stroke-width: 0px; text-decoration-thickness: initial; text-decoration-style: initial; text-decoration-color: initial; font-size: 26px; text-align: center; background-color: rgb(251, 251, 251);&quot;&gt;&lt;font color=&quot;#ff0000&quot; style=&quot;border-color: var(--border-color);&quot;&gt;Switch&lt;/font&gt;&lt;/b&gt;" style="text;whiteSpace=wrap;html=1;" vertex="1" parent="1">
          <mxGeometry x="1390" y="880" width="120" height="50" as="geometry" />
        </mxCell>
        <mxCell id="weTA-WJjYGIkqLDmlpAC-157" value="&lt;b style=&quot;border-color: var(--border-color); color: rgb(0, 0, 0); font-family: Helvetica; font-size: 26px; font-style: normal; font-variant-ligatures: normal; font-variant-caps: normal; letter-spacing: normal; orphans: 2; text-align: center; text-indent: 0px; text-transform: none; widows: 2; word-spacing: 0px; -webkit-text-stroke-width: 0px; background-color: rgb(251, 251, 251); text-decoration-thickness: initial; text-decoration-style: initial; text-decoration-color: initial;&quot;&gt;&lt;font color=&quot;#ff0000&quot; style=&quot;border-color: var(--border-color);&quot;&gt;Switch Wi-Fi&lt;/font&gt;&lt;/b&gt;" style="text;whiteSpace=wrap;html=1;" vertex="1" parent="1">
          <mxGeometry x="1080" y="898.5" width="190" height="50" as="geometry" />
        </mxCell>
        <mxCell id="weTA-WJjYGIkqLDmlpAC-160" value="" style="rounded=0;whiteSpace=wrap;html=1;strokeColor=#67AB9F;fillColor=#67AB9F;" vertex="1" parent="1">
          <mxGeometry x="3392.93" y="860" width="197.07" height="110" as="geometry" />
        </mxCell>
        <mxCell id="weTA-WJjYGIkqLDmlpAC-169" value="&lt;span style=&quot;font-size: 27px;&quot;&gt;&lt;b&gt;Bureau&lt;/b&gt;&lt;/span&gt;" style="text;strokeColor=none;align=center;fillColor=none;html=1;verticalAlign=middle;whiteSpace=wrap;rounded=0;" vertex="1" parent="1">
          <mxGeometry x="3668" y="900" width="60" height="30" as="geometry" />
        </mxCell>
        <mxCell id="weTA-WJjYGIkqLDmlpAC-171" value="" style="shape=hexagon;perimeter=hexagonPerimeter2;whiteSpace=wrap;html=1;fixedSize=1;fillColor=#6d8764;fontColor=#ffffff;strokeColor=#3A5431;" vertex="1" parent="1">
          <mxGeometry x="2900" y="865" width="240" height="120" as="geometry" />
        </mxCell>
        <mxCell id="weTA-WJjYGIkqLDmlpAC-172" value="&lt;b style=&quot;border-color: var(--border-color); color: rgb(0, 0, 0); font-family: Helvetica; font-size: 26px; font-style: normal; font-variant-ligatures: normal; font-variant-caps: normal; letter-spacing: normal; orphans: 2; text-align: center; text-indent: 0px; text-transform: none; widows: 2; word-spacing: 0px; -webkit-text-stroke-width: 0px; background-color: rgb(251, 251, 251); text-decoration-thickness: initial; text-decoration-style: initial; text-decoration-color: initial;&quot;&gt;Salle de repos&lt;/b&gt;" style="text;whiteSpace=wrap;html=1;" vertex="1" parent="1">
          <mxGeometry x="3150" y="895.5" width="230" height="50" as="geometry" />
        </mxCell>
      </root>
    </mxGraphModel>
  </diagram>
</mxfile>
